:SAMPLES-PER-SECOND 30
:FULLY-SPECIFIED
:DEGREES
56
root  35.02166328 36.54045946 -14.56311143 10.11251545 0.8584601283 2.752096891
lowerback  -8.502289772 0.8037409782 0.8915087581
upperback  -3.628190041 0.6950790286 -3.036629915
thorax  1.059870005 0.1665170044 -3.580820084
lowerneck  -14.66469955 3.489310026 2.763119936
upperneck  11.54179955 3.351979971 4.372680187
head  5.875239849 2.049069881 1.245710015
lclavicle  0 -4.497500157e-015 -2.743230041e-014
lhumerus  -44.65480042 27.02960014 69.35369873
lradius  -0.4821695983 -6.507048965e-006 28.20140076
lwrist  4.824992743e-007 -3.790274832e-007 -29.38480186
lhand  -0 -36.79550171 -10.62930012
lfingers  90 7.125020027 -90
lthumb  94.75747152 -25.46967164 100.9531188
rclavicle  0 -4.497500157e-015 -2.743230041e-014
rhumerus  -23.55130005 1.537139177 -78.52680206
rradius  -5.16745672e-007 2.214343908e-008 85.02610016
rwrist  1.129822067e-006 0.001802438172 -171.7539978
rhand  -1.76556477e-031 0.09148520231 -8.04294014
rfingers  -90 -7.125020027 -90
rthumb  -86.22021713 -7.807151607 -64.06399062
rfemur  -12.29048824 14.84991455 13.59285927
rtibia  -0.4269181788 0.7402507067 19.7305069
rfoot  -0.05909116939 -18.91220474 -39.58094788
rtoes  4.073877005 19.59734809 -101.9884716
lfemur  -9.780875206 -16.93763542 -18.57946587
ltibia  2.308960438 1.386510134 14.84125519
lfoot  0.3585593104 -28.06280518 33.37765884
ltoes  -8.63785558 -18.1077881 -116.0478779
57
root  35.02145902 36.54070576 -14.5574029 10.1152792 0.8789343834 2.745118856
lowerback  -8.534520149 0.8228939772 0.8850174546
upperback  -3.632450104 0.7201960087 -3.039010048
thorax  1.074910045 0.1787640005 -3.577189922
lowerneck  -14.63619995 3.494410038 2.780639887
upperneck  11.47019958 3.359770298 4.372200012
head  5.84803009 2.051939011 1.241770029
lclavicle  0 -4.497500157e-015 -2.743230041e-014
lhumerus  -44.66260147 27.07159996 69.31809998
lradius  -0.4827477634 -6.507048965e-006 28.1495018
lwrist  4.824992743e-007 -3.790274832e-007 -29.46999931
lhand  -0 -36.79800034 -10.78110027
lfingers  90 7.125020027 -90
lthumb  94.79065068 -25.61859576 100.9696287
rclavicle  0 -4.497500157e-015 -2.743230041e-014
rhumerus  -22.1928997 2.216659784 -78.30860138
rradius  -5.16745672e-007 2.214343908e-008 85.92359924
rwrist  1.129822067e-006 0.001802438172 -172.0079956
rhand  -1.765579402e-031 0.2505649924 -8.051950455
rfingers  -90 -7.125020027 -90
rthumb  -86.19357973 -7.808848994 -63.90981447
rfemur  -12.25873852 14.80592918 13.59978199
rtibia  -0.4115519226 0.7421547174 19.68705559
rfoot  -0.03727199882 -18.90562057 -39.55443573
rtoes  4.095643453 19.59298161 -102.053374
lfemur  -9.770507813 -16.94176865 -18.57266426
ltibia  2.316759109 1.404959559 14.82594013
lfoot  0.3616184294 -28.09388924 33.37505341
ltoes  -8.630516254 -18.11119585 -116.0242662
58
root  35.02291882 36.54254703 -14.54822811 10.15511417 0.910564661 2.754590511
lowerback  -8.496821404 0.8333268762 0.8765268326
upperback  -3.624660015 0.7364599705 -3.041790009
thorax  1.063230038 0.1876499951 -3.573810101
lowerneck  -14.71780014 3.504970074 2.882390022
upperneck  11.49260044 3.356309891 4.313930035
head  5.871846199 2.053182364 1.208901882
lclavicle  0 -4.497500157e-015 -2.743230041e-014
lhumerus  -44.66086578 27.12926292 69.26280975
lradius  -0.4832977057 -6.507048965e-006 28.11619949
lwrist  4.824992743e-007 -3.790274832e-007 -29.57719994
lhand  -4.409120671e-031 -36.78689957 -10.82520008
lfingers  90 7.125020027 -90
lthumb  94.79470849 -25.66229792 100.9617272
rclavicle  0 -4.497500157e-015 -2.743230041e-014
rhumerus  -20.75149918 2.814399719 -78.13670349
rradius  -5.16745672e-007 2.214343908e-008 86.74019623
rwrist  1.129822067e-006 0.001802438172 -172.2160034
rhand  -1.765562525e-031 -0.004618879873 -7.909029961
rfingers  -90 -7.125020027 -90
rthumb  -86.17970089 -7.921839121 -64.14948011
rfemur  -12.28803253 14.77353668 13.58409595
rtibia  -0.4070976973 0.7643735409 19.69526482
rfoot  -0.02399525233 -18.85204315 -39.51203537
rtoes  4.118753288 19.58831892 -102.1222973
lfemur  -9.731683731 -16.95180702 -18.61148643
ltibia  2.374794722 1.417578459 14.71690273
lfoot  0.3425376117 -28.05842209 33.33990479
ltoes  -8.650106377 -18.10209181 -116.0873002
59
root  35.02536083 36.54446339 -14.54454858 10.18577766 0.8937575817 2.739076853
lowerback  -8.507879257 0.8620930314 0.8491719961
upperback  -3.614219904 0.7774000168 -3.061000109
thorax  1.082800031 0.2084659934 -3.574419975
lowerneck  -14.77270031 3.518379927 3.010620117
upperneck  11.50349998 3.356019735 4.233799934
head  5.888390064 2.051759958 1.164389968
lclavicle  0 -4.497500157e-015 -2.743230041e-014
lhumerus  -44.73109818 27.31550026 69.03679657
lradius  -0.4838151932 -6.507048965e-006 27.94759941
lwrist  4.824992743e-007 -3.790274832e-007 -30.35429955
lhand  -4.410813606e-031 -36.81629944 -10.72749996
lfingers  90 7.125020027 -90
lthumb  94.7879339 -25.5653888 100.9842911
rclavicle  0 -4.497500157e-015 -2.743230041e-014
rhumerus  -19.24379921 3.411450148 -77.87349701
rradius  -5.16745672e-007 2.214343908e-008 87.39810181
rwrist  1.129822067e-006 0.001802438172 -172.4429932
rhand  -1.765563935e-031 0.07255460322 -7.86687994
rfingers  -90 -7.125020027 -90
rthumb  -86.1461214 -7.964387198 -64.07171273
rfemur  -12.3104887 14.75544357 13.58238983
rtibia  -0.3923573196 0.7475805879 19.67272949
rfoot  -0.01594464108 -18.8936615 -39.48403549
rtoes  4.135575285 19.58490756 -102.1724776
lfemur  -9.776987076 -16.86924744 -18.5704689
ltibia  2.358524323 1.460901499 14.72998142
lfoot  0.3570164144 -28.14235115 33.33723068
ltoes  -8.655438447 -18.09960938 -116.1044622
60
root  35.02575431 36.54633169 -14.53915243 10.2156744 0.9148375392 2.724664927
lowerback  -8.512310028 0.8875949979 0.8281602859
upperback  -3.605159998 0.8134419918 -3.084939957
thorax  1.097090006 0.2266449928 -3.584029913
lowerneck  -14.82789993 3.515480042 3.07930994
upperneck  11.51809978 3.333900213 4.22645998
head  5.904049873 2.043809891 1.15041995
lclavicle  0 -4.497500157e-015 -2.743230041e-014
lhumerus  -44.7336998 27.31310081 68.97910309
lradius  -0.4842959642 -6.507048965e-006 27.90330124
lwrist  4.824992743e-007 -3.790274832e-007 -30.54780006
lhand  -4.411073025e-031 -36.82080078 -10.74180031
lfingers  90 7.125020027 -90
lthumb  94.79307171 -25.57925942 100.9904188
rclavicle  0 -4.497500157e-015 -2.743230041e-014
rhumerus  -17.72470093 4.101139545 -77.56929779
rradius  -5.16745672e-007 2.214343908e-008 88.11109924
rwrist  1.129822067e-006 0.001802438172 -172.4109955
rhand  -1.765613298e-031 0.4345430136 -7.874979973
rfingers  -90 -7.125020027 -90
rthumb  -86.07890211 -7.97887501 -63.71993
rfemur  -12.33762169 14.77341747 13.59261417
rtibia  -0.3846888244 0.7717300653 19.67025566
rfoot  -0.01029111072 -18.85539627 -39.49046707
rtoes  4.117191468 19.5886349 -102.1176388
lfemur  -9.799201012 -16.88140869 -18.54128265
ltibia  2.358290911 1.481411695 14.72053051
lfoot  0.3622965515 -28.16495132 33.3519516
ltoes  -8.627314467 -18.11268135 -116.0139669
61
root  35.0240362 36.54687836 -14.53318558 10.22268772 0.9617000818 2.74268961
lowerback  -8.489780426 0.9113910198 0.8029479384
upperback  -3.637609959 0.8442320228 -3.066999912
thorax  1.052620053 0.2408120036 -3.548290014
lowerneck  -14.78129959 3.488290071 3.055049896
upperneck  11.46150017 3.298789978 4.27519989
head  5.877419949 2.027509928 1.164579988
lclavicle  0 -4.497500157e-015 -2.743230041e-014
lhumerus  -44.77069855 27.35610008 68.96089935
lradius  -0.4847357273 -6.507048965e-006 27.91230202
lwrist  4.824992743e-007 -3.790274832e-007 -30.51350021
lhand  -4.411182526e-031 -36.8227005 -10.74269962
lfingers  90 7.125020027 -90
lthumb  94.79417546 -25.58008613 100.9925763
rclavicle  0 -4.497500157e-015 -2.743230041e-014
rhumerus  -16.24309921 4.685100079 -77.12719727
rradius  -5.16745672e-007 2.214343908e-008 88.79759979
rwrist  1.129822067e-006 0.001802438172 -172.7630005
rhand  -1.765616039e-031 0.4461149871 -8.024479866
rfingers  -90 -7.125020027 -90
rthumb  -86.14343456 -7.845599587 -63.7178454
rfemur  -12.33845997 14.76987171 13.58753681
rtibia  -0.3830359876 0.7730131745 19.69893646
rfoot  -0.03303265944 -18.87264442 -39.52207947
rtoes  4.091099114 19.59389524 -102.0398227
lfemur  -9.722168922 -16.98293304 -18.60133171
ltibia  2.423070192 1.442723274 14.60639381
lfoot  0.318026334 -28.02299881 33.31175232
ltoes  -8.600494586 -18.12509759 -115.9277265
62
root  35.02236013 36.54750313 -14.52807479 10.22877979 1.009416342 2.743736506
lowerback  -8.502981186 0.9264389277 0.7199323773
upperback  -3.646600008 0.8705919981 -3.0183599
thorax  1.050459981 0.2552179992 -3.448040009
lowerneck  -14.77639961 3.468470097 3.018779993
upperneck  11.40410042 3.284840107 4.270619869
head  5.857759953 2.018300056 1.166679978
lclavicle  0 -4.497500157e-015 -2.743230041e-014
lhumerus  -44.76549911 27.43869972 68.98699951
lradius  -0.4851302803 -6.507048965e-006 27.86899948
lwrist  4.824992743e-007 -3.790274832e-007 -30.54170036
lhand  -0 -36.86009979 -10.71850014
lfingers  90 7.125020027 -90
lthumb  94.80658361 -25.55498506 101.0303104
rclavicle  0 -4.497500157e-015 -2.743230041e-014
rhumerus  -14.61149979 5.237350464 -76.66120148
rradius  -5.16745672e-007 2.214343908e-008 89.35040283
rwrist  1.129822067e-006 0.001802438172 -173.1320038
rhand  -1.765649418e-031 0.5684530139 -8.159930229
rfingers  -90 -7.125020027 -90
rthumb  -86.18038276 -7.731828717 -63.60709143
rfemur  -12.31874561 14.75061607 13.6004715
rtibia  -0.3837694526 0.7896999121 19.67961311
rfoot  -0.01701916941 -18.83348083 -39.51879501
rtoes  4.098838999 19.59233851 -102.0629035
lfemur  -9.671847343 -16.98292542 -18.62159538
ltibia  2.474452972 1.471750259 14.5339489
lfoot  0.3339644969 -28.0497551 33.30962372
ltoes  -8.55152249 -18.14764464 -115.7704016
63
root  35.02253435 36.54831714 -14.52453043 10.24055481 1.041460037 2.742696285
lowerback  -8.556288719 0.9442530274 0.7957980037
upperback  -3.64623642 0.8873810172 -3.091130018
thorax  1.092740059 0.2617819905 -3.565010071
lowerneck  -14.74289989 3.480989933 3.101069927
upperneck  11.3107996 3.281490088 4.306499958
head  5.823850155 2.019750118 1.162420034
lclavicle  0 -4.497500157e-015 -2.743230041e-014
lhumerus  -44.78789902 27.54439926 68.75440216
lradius  -0.4854945838 -6.507048965e-006 27.81010246
lwrist  4.824992743e-007 -3.790274832e-007 -30.88669968
lhand  -4.412895858e-031 -36.85240173 -10.75119972
lfingers  90 7.125020027 -90
lthumb  94.80989037 -25.58731236 101.025059
rclavicle  0 -4.497500157e-015 -2.743230041e-014
rhumerus  -12.92780018 5.8105793 -76.33860016
rradius  -5.16745672e-007 2.214343908e-008 89.75759888
rwrist  1.129822067e-006 0.001802438172 -173.5350037
rhand  -1.765726548e-031 0.780978024 -8.086440086
rfingers  -90 -7.125020027 -90
rthumb  -86.10597484 -7.810948999 -63.39585669
rfemur  -12.3101902 14.74748421 13.6176424
rtibia  -0.385646075 0.7866357565 19.65793228
rfoot  -0.01871950924 -18.83350563 -39.56083679
rtoes  4.113641887 19.58935258 -102.1070516
lfemur  -9.657278061 -16.9419117 -18.61651802
ltibia  2.512506723 1.501077056 14.49564838
lfoot  0.3504583538 -28.08295822 33.27615738
ltoes  -8.578738033 -18.13513428 -115.8578093
